<svg width="32" height="32" viewBox="0 0 32 32" fill="none" xmlns="http://www.w3.org/2000/svg">
  <defs>
    <linearGradient id="grad" x1="0" y1="0" x2="32" y2="32" gradientUnits="userSpaceOnUse">
      <stop stop-color="#6366f1"/>
      <stop offset="0.5" stop-color="#8b5cf6"/>
      <stop offset="1" stop-color="#a78bfa"/>
    </linearGradient>
  </defs>
  <circle cx="16" cy="16" r="14" fill="url(#grad)"/>
  <path d="M16 2C8.268 2 2 8.268 2 16C2 23.732 8.268 30 16 30C23.732 30 30 23.732 30 16C30 8.268 23.732 2 16 2ZM17 27.922C22.682 27.464 27.464 22.682 27.922 17H17V27.922ZM15 27.922V17H4.078C4.536 22.682 9.318 27.464 15 27.922ZM4.078 15H15V4.078C9.318 4.536 4.536 9.318 4.078 15ZM17 4.078V15H27.922C27.464 9.318 22.682 4.536 17 4.078ZM16 4C14.12 4 12.333 4.414 10.743 5.152L14.717 9.126C15.132 8.358 16 7.5 16 7.5S16.868 8.358 17.283 9.126L21.257 5.152C19.667 4.414 17.88 4 16 4ZM26.848 10.743L22.874 14.717C23.642 15.132 24.5 16 24.5 16S23.642 16.868 22.874 17.283L26.848 21.257C27.586 19.667 28 17.88 28 16C28 14.12 27.586 12.333 26.848 10.743ZM21.257 26.848L17.283 22.874C16.868 23.642 16 24.5 16 24.5S15.132 23.642 14.717 22.874L10.743 26.848C12.333 27.586 14.12 28 16 28C17.88 28 19.667 27.586 21.257 26.848ZM5.152 21.257L9.126 17.283C8.358 16.868 7.5 16 7.5 16S8.358 15.132 9.126 14.717L5.152 10.743C4.414 12.333 4 14.12 4 16C4 17.88 4.414 19.667 5.152 21.257Z" fill="white" fill-opacity="0.8"/>
</svg>
